<?xml version="1.0" encoding="UTF-8" standalone="no"?>
<!-- Created with Inkscape (http://www.inkscape.org/) -->

<svg
   xmlns:dc="http://purl.org/dc/elements/1.1/"
   xmlns:cc="http://creativecommons.org/ns#"
   xmlns:rdf="http://www.w3.org/1999/02/22-rdf-syntax-ns#"
   xmlns:svg="http://www.w3.org/2000/svg"
   xmlns="http://www.w3.org/2000/svg"
   xmlns:sodipodi="http://sodipodi.sourceforge.net/DTD/sodipodi-0.dtd"
   xmlns:inkscape="http://www.inkscape.org/namespaces/inkscape"
   width="64"
   height="64"
   viewBox="0 0 64 64"
   version="1.1"
   id="SVGRoot"
   inkscape:version="0.92.4 5da689c313, 2019-01-14"
   sodipodi:docname="daty.svg">
  <defs
     id="defs815">
    <filter
       inkscape:collect="always"
       style="color-interpolation-filters:sRGB"
       id="filter5905"
       x="-0.028771967"
       width="1.0575439"
       y="-0.028828087"
       height="1.0576562">
      <feGaussianBlur
         inkscape:collect="always"
         stdDeviation="0.6812613"
         id="feGaussianBlur5907" />
    </filter>
  </defs>
  <sodipodi:namedview
     id="base"
     pagecolor="#ffffff"
     bordercolor="#666666"
     borderopacity="1.0"
     inkscape:pageopacity="0.0"
     inkscape:pageshadow="2"
     inkscape:zoom="5.6568543"
     inkscape:cx="33.928504"
     inkscape:cy="27.228942"
     inkscape:document-units="px"
     inkscape:current-layer="layer1"
     showgrid="false"
     inkscape:window-width="1366"
     inkscape:window-height="741"
     inkscape:window-x="0"
     inkscape:window-y="-10"
     inkscape:window-maximized="1"
     inkscape:grid-bbox="true" />
  <metadata
     id="metadata818">
    <rdf:RDF>
      <cc:Work
         rdf:about="">
        <dc:format>image/svg+xml</dc:format>
        <dc:type
           rdf:resource="http://purl.org/dc/dcmitype/StillImage" />
        <dc:title></dc:title>
      </cc:Work>
    </rdf:RDF>
  </metadata>
  <g
     inkscape:label="Livello 1"
     inkscape:groupmode="layer"
     id="layer1"
     transform="translate(0,48)">
    <g
       id="g5871"
       inkscape:label="shadow"
       style="filter:url(#filter5905)"
       transform="translate(0,0.50070287)">
      <path
         inkscape:connector-curvature="0"
         id="path1920-3"
         style="fill:#000000;fill-opacity:1;stroke-width:0.08926329"
         d="M 3.728558,12.515488 H 5.777057 V -44.19693 H 3.728558 Z m 4.233759,0 h 6.281834 V -44.19693 H 7.962317 Z m 8.330768,-56.712418 v 56.71039 h 6.281824 v -56.71039 z" />
      <path
         inkscape:connector-curvature="0"
         id="path1922-6"
         style="fill:#160000;fill-opacity:1;stroke-width:0.08926329"
         d="m 54.272957,12.519522 h 2.048918 V -44.19693 h -2.048918 z m 4.234191,-56.716452 v 56.716452 h 2.048498 V -44.19693 Z M 24.691577,12.519532 h 2.0485 V -44.19693 h -2.0485 z M 28.925769,-44.19693 V 12.517503 H 30.97469 V -44.19693 Z" />
      <path
         inkscape:connector-curvature="0"
         id="path1924-7"
         style="fill:#000008;fill-opacity:1;stroke-width:0.08926329"
         d="m 33.090513,12.519532 h 6.282683 V -44.19693 h -6.282683 z m 8.330759,0 h 2.184837 V -44.19693 h -2.184837 z m 4.233759,-56.716462 v 56.714433 h 6.281835 V -44.19693 Z" />
    </g>
    <path
       d="M 3.728558,12.515488 H 5.7770573 V -44.196931 H 3.728558 Z m 4.2337592,0 H 14.244151 V -44.196931 H 7.9623172 Z M 16.293085,-44.196931 V 12.51346 h 6.281824 v -56.710391 z"
       style="fill:#e01b24;fill-opacity:1;stroke-width:0.08926329"
       id="path1920"
       inkscape:connector-curvature="0" />
    <path
       d="m 54.272957,12.519522 h 2.048918 v -56.716453 h -2.048918 z m 4.234191,-56.716453 v 56.716453 h 2.048498 V -44.196931 Z M 24.691577,12.519532 h 2.0485 v -56.716463 h -2.0485 z m 4.234192,-56.716463 v 56.714434 h 2.048921 v -56.714434 z"
       style="fill:#33d17a;fill-opacity:1;stroke-width:0.08926329"
       id="path1922"
       inkscape:connector-curvature="0" />
    <path
       d="m 33.090513,12.519532 h 6.282683 v -56.716463 h -6.282683 z m 8.330759,0 h 2.184837 v -56.716463 h -2.184837 z m 4.233759,-56.716463 v 56.714434 h 6.281835 v -56.714434 z"
       style="fill:#3584e4;fill-opacity:1;stroke-width:0.08926329"
       id="path1924"
       inkscape:connector-curvature="0" />
  </g>
</svg>
